<svg width="46" height="38" viewBox="0 0 46 38" fill="none" xmlns="http://www.w3.org/2000/svg">
<path fill-rule="evenodd" clip-rule="evenodd" d="M0 1C0 0.447715 0.447715 0 1 0H31C31.5523 0 32 0.447715 32 1V27C32 27.5523 31.5523 28 31 28H1C0.447715 28 0 27.5523 0 27V1ZM2 2V26H30V2H2Z" fill="#15BCE0"/>
<path fill-rule="evenodd" clip-rule="evenodd" d="M30 11C30 10.4477 30.4477 10 31 10H39C39.2652 10 39.5196 10.1054 39.7071 10.2929L45.7071 16.2929C45.8946 16.4804 46 16.7348 46 17V27C46 27.5523 45.5523 28 45 28H31C30.4477 28 30 27.5523 30 27V11ZM32 12V26H44V17.4142L38.5858 12H32Z" fill="#15BCE0"/>
<path fill-rule="evenodd" clip-rule="evenodd" d="M10 28C7.79086 28 6 29.7909 6 32C6 34.2091 7.79086 36 10 36C12.2091 36 14 34.2091 14 32C14 29.7909 12.2091 28 10 28ZM4 32C4 28.6863 6.68629 26 10 26C13.3137 26 16 28.6863 16 32C16 35.3137 13.3137 38 10 38C6.68629 38 4 35.3137 4 32Z" fill="#15BCE0"/>
<path fill-rule="evenodd" clip-rule="evenodd" d="M36 28C33.7909 28 32 29.7909 32 32C32 34.2091 33.7909 36 36 36C38.2091 36 40 34.2091 40 32C40 29.7909 38.2091 28 36 28ZM30 32C30 28.6863 32.6863 26 36 26C39.3137 26 42 28.6863 42 32C42 35.3137 39.3137 38 36 38C32.6863 38 30 35.3137 30 32Z" fill="#15BCE0"/>
</svg>
