<svg width="31" height="29" viewBox="0 0 31 29" fill="none" xmlns="http://www.w3.org/2000/svg">
<path fill-rule="evenodd" clip-rule="evenodd" d="M30.2071 1.79289C30.5976 2.18342 30.5976 2.81658 30.2071 3.20711L15.2071 18.2071C14.8166 18.5976 14.1834 18.5976 13.7929 18.2071L9.29289 13.7071C8.90237 13.3166 8.90237 12.6834 9.29289 12.2929C9.68342 11.9024 10.3166 11.9024 10.7071 12.2929L14.5 16.0858L28.7929 1.79289C29.1834 1.40237 29.8166 1.40237 30.2071 1.79289Z" fill="#E0155E"/>
<path fill-rule="evenodd" clip-rule="evenodd" d="M4 2C3.46957 2 2.96086 2.21071 2.58579 2.58579C2.21071 2.96086 2 3.46957 2 4V25C2 25.5304 2.21071 26.0391 2.58579 26.4142C2.96086 26.7893 3.46957 27 4 27H25C25.5304 27 26.0391 26.7893 26.4142 26.4142C26.7893 26.0391 27 25.5304 27 25V14.5C27 13.9477 27.4477 13.5 28 13.5C28.5523 13.5 29 13.9477 29 14.5V25C29 26.0609 28.5786 27.0783 27.8284 27.8284C27.0783 28.5786 26.0609 29 25 29H4C2.93913 29 1.92172 28.5786 1.17157 27.8284C0.421427 27.0783 0 26.0609 0 25V4C0 2.93913 0.421427 1.92172 1.17157 1.17157C1.92172 0.421427 2.93913 0 4 0H20.5C21.0523 0 21.5 0.447715 21.5 1C21.5 1.55228 21.0523 2 20.5 2H4Z" fill="#E0155E"/>
</svg>
